<?xml version="1.0" standalone="no"?>
<!DOCTYPE svg PUBLIC "-//W3C//DTD SVG 20010904//EN"
 "http://www.w3.org/TR/2001/REC-SVG-20010904/DTD/svg10.dtd">
<svg version="1.0" xmlns="http://www.w3.org/2000/svg"
 width="512.000000pt" height="512.000000pt" viewBox="0 0 512.000000 512.000000"
 preserveAspectRatio="xMidYMid meet">
<metadata>
Created by potrace 1.11, written by Peter Selinger 2001-2013
</metadata>
<g transform="translate(0.000000,512.000000) scale(0.100000,-0.100000)"
fill="#000000" stroke="none">
<path d="M3460 5039 c-36 -8 -59 -34 -61 -69 0 -14 -1 -128 0 -255 0 -126 -2
-239 -4 -250 -4 -20 -12 -20 -742 -21 -406 0 -760 -3 -788 -7 -265 -36 -506
-212 -624 -457 -20 -41 -37 -77 -39 -80 -2 -3 -218 -5 -480 -5 l-477 -1 -48
-23 c-50 -24 -100 -85 -113 -136 -4 -16 -7 -299 -7 -630 0 -660 -1 -648 61
-717 69 -76 44 -73 553 -76 l457 -3 1 -100 c2 -109 4 -101 -74 -224 -133 -207
-404 -647 -419 -680 -10 -22 -21 -68 -24 -102 -4 -53 -1 -70 22 -117 88 -181
366 -265 766 -232 340 28 705 179 853 352 15 17 133 200 263 405 130 206 240
376 244 379 6 4 572 5 615 1 7 -1 10 -240 10 -701 l0 -700 -110 -1 c-60 0
-123 -3 -140 -5 -130 -19 -265 -109 -332 -222 -54 -91 -82 -205 -60 -247 24
-46 -3 -44 908 -45 862 0 866 0 893 21 20 16 26 29 26 58 0 95 -63 227 -145
306 -105 101 -203 135 -387 135 l-118 0 0 705 0 705 514 0 c302 0 525 4 540
10 14 5 30 19 37 32 9 17 12 209 12 818 0 437 -3 822 -6 855 -35 330 -290 626
-612 709 -98 25 -129 28 -317 29 -154 0 -178 3 -179 16 -1 9 -2 129 -3 266 -2
269 -5 289 -52 301 -35 9 -374 11 -414 3z m308 -366 l2 -221 -112 2 -112 1 -1
205 c0 113 1 212 3 220 3 13 22 16 110 15 l107 -1 3 -221z m-1593 -407 c132
-42 250 -122 331 -225 82 -104 139 -253 143 -376 8 -227 5 -1505 -4 -1508 -9
-2 -1263 0 -1321 2 -18 1 -20 7 -20 76 l0 75 410 1 c226 0 424 3 440 5 72 12
148 80 169 149 9 34 12 188 12 657 -1 607 -1 613 -23 654 -11 23 -36 54 -54
69 -67 57 -69 57 -495 57 l-392 0 14 35 c47 113 200 253 335 307 82 33 89 35
137 42 27 3 50 8 52 10 14 13 196 -8 266 -30z m2180 17 c238 -48 441 -236 513
-478 l25 -80 1 -778 c0 -465 -3 -781 -8 -785 -12 -7 -2055 -9 -2067 -2 -5 4
-9 342 -10 780 -1 767 -1 776 -23 866 -24 98 -76 216 -127 291 -39 56 -162
183 -178 183 -6 0 -11 4 -11 9 0 4 408 8 908 8 739 0 920 -3 977 -14z m-2295
-533 c0 -3 -193 -198 -429 -434 l-430 -429 -430 430 c-237 237 -431 432 -431
434 0 2 387 4 860 4 473 0 860 -2 860 -5z m-1437 -502 l137 -136 -249 -249
c-137 -136 -257 -256 -267 -265 -19 -16 -19 -4 -18 505 1 287 2 526 3 530 0 5
59 -49 129 -120 71 -70 190 -190 265 -265z m1557 -140 l0 -533 -267 267 -268
268 265 265 c146 146 266 265 267 265 2 0 3 -240 3 -532z m-1159 -258 c129
-127 156 -150 182 -150 26 0 53 23 182 150 l151 150 262 -263 c144 -144 264
-264 266 -267 3 -4 -1188 -4 -1658 -1 l-69 1 264 265 c145 146 265 265 266
265 2 0 71 -67 154 -150z m1540 -907 c-20 -32 -118 -186 -217 -341 -98 -156
-197 -301 -219 -323 -129 -125 -377 -222 -689 -268 -67 -10 -309 -7 -371 4
-98 17 -198 57 -238 94 -34 32 -41 45 -41 78 0 40 20 79 158 295 23 36 107
168 185 292 l143 226 664 0 663 0 -38 -57z m1209 -643 l0 -700 -22 -1 c-93 -4
-191 0 -197 9 -5 8 -7 1379 -2 1390 0 1 51 2 111 2 l110 0 0 -700z m460 -876
c25 -12 64 -38 88 -59 43 -38 97 -118 89 -132 -3 -4 -340 -8 -749 -8 -734 1
-743 1 -740 20 6 32 75 118 121 149 78 54 92 55 641 53 492 -2 506 -3 550 -23z"/>
</g>
</svg>
